<svg width="96" height="96" viewBox="0 0 96 96" fill="none" xmlns="http://www.w3.org/2000/svg">
<g clip-path="url(#clip0_189_2284)">
<mask id="mask0_189_2284" style="mask-type:luminance" maskUnits="userSpaceOnUse" x="0" y="0" width="96" height="96">
<path d="M96 0H0V96H96V0Z" fill="white"/>
</mask>
<g mask="url(#mask0_189_2284)">
<path d="M47.9863 24.9442C42.7668 24.9418 37.5522 25.2613 32.3721 25.901C35.4847 10.4777 41.6295 0.638377 47.4283 0.0267336C47.6134 0.0046327 47.7999 -0.00426175 47.9863 0.000117682C48.1729 -0.00428655 48.3596 0.00460794 48.5449 0.0267336C54.3703 0.638377 60.5149 10.4777 63.6272 25.9015C58.4382 25.2618 53.2147 24.9423 47.9863 24.9448" fill="#ED9A63"/>
<path d="M94.6165 36.6451C88.9772 32.2307 80.0663 28.7736 69.2134 26.7791C67.2184 15.9292 63.7337 7.02076 59.3447 1.35645C76.7145 5.58472 90.4137 19.2801 94.6161 36.6451" fill="#ED9A63"/>
<path d="M47.9872 65.711C42.4433 65.7173 36.9058 65.3352 31.4153 64.5675C30.6474 59.0786 30.2652 53.5426 30.2716 48.0003C30.2643 42.4491 30.6465 36.9042 31.4153 31.4064C36.9058 30.6386 42.4433 30.2565 47.9872 30.2628C53.5399 30.2555 59.0863 30.6376 64.5856 31.4062C65.3544 36.904 65.7366 42.4489 65.7294 48.0001C65.7357 53.5425 65.3535 59.0784 64.5856 64.5674C59.0863 65.336 53.5399 65.7182 47.9872 65.711Z" fill="#ED9A63"/>
<path d="M25.9087 32.3638C24.6319 42.7402 24.6319 53.2339 25.9087 63.6103C10.4806 60.4983 0.638553 54.356 0.0267412 48.5587C0.00461006 48.3735 -0.00428688 48.1869 0.000117984 48.0003C-0.00428747 47.8138 0.00460947 47.6272 0.0267412 47.4419C0.638553 41.6447 10.4806 35.475 25.9087 32.3638Z" fill="#ED9A63"/>
<path d="M36.6822 1.35645C32.2667 7.02076 28.7819 15.9292 26.7869 26.7791C15.934 28.7736 7.02304 32.2307 1.38379 36.6451C5.5866 19.2535 19.3123 5.5581 36.6822 1.35645Z" fill="#ED9A63"/>
<path d="M26.7869 69.1946C28.7819 80.0711 32.2399 88.9796 36.6822 94.6439C19.2857 90.4422 5.5866 76.7203 1.38379 59.3286C7.02304 63.743 15.934 67.2264 26.7869 69.1946Z" fill="#ED9A63"/>
<path d="M63.6272 70.0723C60.5151 85.5227 54.37 95.362 48.5449 95.9737C48.3596 95.9958 48.1729 96.0047 47.9863 96.0003C47.7997 96.0047 47.6131 95.9958 47.4278 95.9737C41.6289 95.362 35.4842 85.5227 32.3721 70.0723C37.5522 70.712 42.7668 71.0315 47.9863 71.029C53.2147 71.0315 58.4382 70.712 63.6272 70.0723Z" fill="#ED9A63"/>
<path d="M94.6431 59.3022C90.4403 76.6939 76.7145 90.4159 59.3447 94.6441C63.7337 88.9798 67.2184 80.0712 69.2134 69.1948C80.0929 67.227 89.0039 63.7433 94.6431 59.3022Z" fill="#ED9A63"/>
<path d="M96.0004 48.0003C96.0048 48.1869 95.9959 48.3735 95.9737 48.5587C95.3619 54.356 85.5199 60.4988 70.0918 63.6103C70.7317 58.4316 71.0513 53.2184 71.0488 48.0003C71.0521 42.7734 70.7325 37.5513 70.0918 32.3638C85.5199 35.475 95.3619 41.6447 95.9737 47.4419C95.9959 47.6272 96.0048 47.8138 96.0004 48.0003Z" fill="#ED9A63"/>
</g>
</g>
<defs>
<clipPath id="clip0_189_2284">
<rect width="96" height="96" fill="white"/>
</clipPath>
</defs>
</svg>
