<svg width="72" height="45" viewBox="0 0 72 45" fill="none" xmlns="http://www.w3.org/2000/svg">
<path d="M20.5174 20.388V41H30.7761V20.388C30.7761 11.8895 23.8866 5 15.388 5C6.88947 5 0 11.8895 0 20.3881V25.5174H10.2587V20.3881C10.2587 17.5552 12.5552 15.2587 15.388 15.2587C18.2209 15.2587 20.5174 17.5552 20.5174 20.388Z" fill="#ED9A63"/>
<path d="M41.0657 10.1293C41.0657 12.9622 38.7692 15.2587 35.9363 15.2587C33.1035 15.2587 30.807 12.9622 30.807 10.1293C30.807 7.29649 33.1035 5 35.9363 5C38.7692 5 41.0657 7.29649 41.0657 10.1293Z" fill="#ED9A63"/>
<path d="M61.5834 25.5174V20.388C61.5834 17.5552 59.2869 15.2587 56.4541 15.2587C53.6212 15.2587 51.3247 17.5552 51.3247 20.3881V30.7413H51.328V41L51.3247 41L35.7268 41V30.7413H41.066V20.3881C41.066 11.8895 47.9555 5 56.4541 5C64.9526 5 71.8421 11.8895 71.8421 20.388V25.5174H61.5834Z" fill="#ED9A63"/>
</svg>
